<svg data-v-0dd9719b="" version="1.0" xmlns="http://www.w3.org/2000/svg" xmlns:xlink="http://www.w3.org/1999/xlink" width="100%" height="100%" viewBox="0 0 340.000000 250.000000" preserveAspectRatio="xMidYMid meet" color-interpolation-filters="sRGB" style="margin: auto;"> <rect data-v-0dd9719b="" x="0" y="0" width="100%" height="100%" fill="#fff" fill-opacity="1" class="background"></rect> <rect data-v-0dd9719b="" x="0" y="0" width="100%" height="100%" fill="url(#watermark)" fill-opacity="1" class="watermarklayer"></rect> <g data-v-0dd9719b="" fill="#333" class="icon-text-wrapper icon-svg-group iconsvg" transform="translate(49.025001525878906,95.00029945373535)"><g class="iconsvg-imagesvg" transform="translate(0,0)"><g><rect fill="#333" fill-opacity="0" stroke-width="2" x="0" y="0" width="60" height="59.99940000599994" class="image-rect"></rect> <svg x="0" y="0" width="60" height="59.99940000599994" filtersec="colorsb1931180722" class="image-svg-svg primary" style="overflow: visible;"><svg xmlns="http://www.w3.org/2000/svg" viewBox="-1.242738822005568e-13 0 70.0003662109375 70"><title>资源 46</title><path d="M70 35.24A35 35 0 0 1 35 70H0V43.72a17.49 17.49 0 0 1 17.49-17.49v26.24H35a17.5 17.5 0 0 0 17.46-17.83 17.75 17.75 0 0 0-17.88-17.15H17.49A17.49 17.49 0 0 1 0 0h34.36C53.74 0 70.09 15.86 70 35.24z" fill="#fa7c1f"></path><path d="M26.23 26.23H35A8.74 8.74 0 0 1 43.72 35 8.74 8.74 0 0 1 35 43.72h-8.77V26.23z" fill="#4a00ff"></path></svg></svg> <!----></g></g> <g transform="translate(67,2.3734493255615234)"><g data-gra="path-name" fill-rule="" class="tp-name iconsvg-namesvg" transform="translate(0,0)"><g transform="scale(1)"><g><path d="M40.43-1.54Q42.63-0.92 42.63 0.66L42.63 0.66Q42.63 2.68 40.78 2.68L40.78 2.68Q39.46 2.68 35.38 0.79L35.38 0.79Q31.64-0.92 28.72-3.1 25.8-5.27 23.99-7.65L23.99-7.65 23.99 2.2Q23.99 4.31 22.24 4.31L22.24 4.31Q20.48 4.31 20.48 2.2L20.48 2.2 20.48-7.51Q17.27-4.13 13.36-1.58L13.36-1.58Q10.02 0.57 7.67 1.67 5.32 2.77 4.22 2.77L4.22 2.77Q2.5 2.77 2.5 1.01L2.5 1.01Q2.5 0.53 2.72 0.09 2.94-0.35 3.34-0.57L3.34-0.57 6.37-1.89Q13.05-4.53 18.63-9.76L18.63-9.76 9.98-9.76Q7.78-9.76 6.79-10.74 5.8-11.73 5.93-13.84L5.93-13.84 5.93-21.62Q5.93-23.82 6.88-24.83 7.82-25.84 9.98-25.75L9.98-25.75 20.48-25.75 20.48-28.74 5.01-28.74Q4.04-28.74 3.49-29.18 2.94-29.62 2.94-30.41L2.94-30.41Q2.94-32.08 5.01-32.08L5.01-32.08 20.48-32.08 20.48-34.23Q20.48-35.02 20.94-35.42 21.4-35.82 22.24-35.82L22.24-35.82Q23.07-35.82 23.53-35.42 23.99-35.02 23.99-34.23L23.99-34.23 23.99-32.08 39.9-32.08Q42.01-32.08 42.01-30.41L42.01-30.41Q42.01-28.74 39.9-28.74L39.9-28.74 23.99-28.74 23.99-25.75 34.94-25.75Q37.13-25.75 38.12-24.74 39.11-23.73 38.98-21.62L38.98-21.62 38.98-13.84Q38.98-11.6 38.03-10.59 37.09-9.58 34.94-9.76L34.94-9.76 25.62-9.76Q27.99-7.12 31.77-5.03 35.55-2.94 40.43-1.54L40.43-1.54ZM20.48-19.42L20.48-22.54 11.25-22.54Q10.2-22.54 9.84-22.19 9.49-21.84 9.49-20.79L9.49-20.79 9.49-19.42 20.48-19.42ZM23.99-22.54L23.99-19.42 35.42-19.42 35.42-20.79Q35.42-21.84 35.09-22.19 34.76-22.54 33.71-22.54L33.71-22.54 23.99-22.54ZM20.48-12.96L20.48-16.26 9.49-16.26 9.49-14.63Q9.49-13.67 9.84-13.32 10.2-12.96 11.25-12.96L11.25-12.96 20.48-12.96ZM23.99-16.26L23.99-12.96 33.71-12.96Q34.76-12.96 35.09-13.32 35.42-13.67 35.42-14.63L35.42-14.63 35.42-16.26 23.99-16.26ZM59.81-25.75Q58.1-25.75 58.1-27.38L58.1-27.38 58.1-29.14 49.61-29.14Q47.77-29.14 47.77-30.67L47.77-30.67Q47.77-32.26 49.61-32.26L49.61-32.26 58.1-32.26 58.1-34.19Q58.1-35.77 59.81-35.77L59.81-35.77Q61.52-35.77 61.52-34.19L61.52-34.19 61.52-32.26 73.13-32.26 73.13-34.19Q73.13-35.77 74.79-35.77L74.79-35.77Q76.51-35.77 76.51-34.19L76.51-34.19 76.51-32.26 85.34-32.26Q87.28-32.26 87.28-30.67L87.28-30.67Q87.28-29.14 85.34-29.14L85.34-29.14 76.51-29.14 76.51-27.38Q76.51-26.54 76.11-26.15 75.72-25.75 74.79-25.75L74.79-25.75Q73.92-25.75 73.52-26.15 73.13-26.54 73.13-27.38L73.13-27.38 73.13-29.14 61.52-29.14 61.52-27.38Q61.52-25.75 59.81-25.75L59.81-25.75ZM50.23-15.42Q48.38-15.42 48.38-17.27L48.38-17.27 48.38-20.35Q48.38-22.37 49.33-23.31 50.27-24.26 52.34-24.26L52.34-24.26 65.26-24.26 65.26-26.28Q65.26-28.13 67.15-28.13L67.15-28.13Q69.08-28.13 69.08-26.28L69.08-26.28 69.08-24.26 82.62-24.26Q86.84-24.26 86.53-20.35L86.53-20.35 86.53-17.27Q86.53-16.3 86.09-15.86 85.65-15.42 84.73-15.42L84.73-15.42Q83.8-15.42 83.36-15.86 82.92-16.3 82.92-17.27L82.92-17.27 82.92-19.82Q82.92-21.18 81.34-21.23L81.34-21.23 53.61-21.23Q52.82-21.23 52.4-20.85 51.99-20.48 52.03-19.82L52.03-19.82 52.03-17.27Q52.03-15.42 50.23-15.42L50.23-15.42ZM55.02-14.59Q53.31-14.59 53.31-16.13L53.31-16.13Q53.31-17.67 55.02-17.67L55.02-17.67 79.94-17.67Q81.69-17.67 81.69-16.13L81.69-16.13Q81.69-14.59 79.94-14.59L79.94-14.59 55.02-14.59ZM49.7 4Q47.68 4 47.68 2.2L47.68 2.2Q47.68 0.83 49.61 0.57L49.61 0.57Q56.56-0.26 58.67-2.77L58.67-2.77Q60.03-4.39 60.25-7.82L60.25-7.82 50.05-7.82Q48.3-7.82 48.3-9.32L48.3-9.32Q48.3-10.81 50.05-10.81L50.05-10.81 84.9-10.81Q85.83-10.81 86.24-10.44 86.66-10.06 86.66-9.32L86.66-9.32Q86.66-8.57 86.24-8.2 85.83-7.82 84.9-7.82L84.9-7.82 72.86-7.82 72.86-1.8Q72.86-0.09 74.97 0.13L74.97 0.13Q76.16 0.26 77.3 0.26L77.3 0.26 78.62 0.22Q79.89 0.18 80.9 0.09 81.91 0 82.35-0.18L82.35-0.18Q83.32-0.57 83.63-2.94L83.63-2.94Q83.8-4.57 85.52-4.57L85.52-4.57Q87.36-4.57 87.36-2.9L87.36-2.9Q87.36 0.57 86.04 1.85L86.04 1.85Q84.55 3.25 78.49 3.25L78.49 3.25 74.49 3.21Q69.43 3.12 69.39 0.22L69.39 0.22 69.39-7.82 63.68-7.82 63.68-7.38Q63.28-1.27 58.89 1.32L58.89 1.32Q54.36 4 49.7 4L49.7 4ZM132.5-20.21Q132.5-18.24 130.52-18.24L130.52-18.24Q128.58-18.24 123.4-21.4L123.4-21.4Q123.44-21.27 123.44-20.96L123.44-20.96Q123.44-19.29 121.42-19.29L121.42-19.29 113.91-19.29 113.91-14.06 127.75-14.06Q129.77-14.06 129.77-12.39L129.77-12.39Q129.77-10.77 127.75-10.77L127.75-10.77 113.91-10.77 113.91-0.66 129.29-0.66Q130.34-0.66 130.83-0.26 131.31 0.13 131.31 1.01L131.31 1.01Q131.31 1.85 130.83 2.24 130.34 2.64 129.29 2.64L129.29 2.64 95.67 2.64Q93.69 2.64 93.69 1.01L93.69 1.01Q93.69 0.13 94.17-0.26 94.66-0.66 95.67-0.66L95.67-0.66 110.43-0.66 110.43-10.77 97.21-10.77Q95.19-10.77 95.19-12.39L95.19-12.39Q95.19-14.06 97.21-14.06L97.21-14.06 110.43-14.06 110.43-19.29 103.49-19.29Q102.44-19.29 101.93-19.69 101.43-20.08 101.43-20.96L101.43-20.96Q101.43-21.18 101.51-21.53L101.51-21.53Q95.98-17.84 94.22-17.84L94.22-17.84Q92.5-17.84 92.5-19.69L92.5-19.69Q92.5-20.52 93.08-20.96L93.08-20.96Q93.47-21.23 94.53-21.75L94.53-21.75Q95.1-21.97 96.06-22.5L96.06-22.5Q104.63-26.85 109.73-33.57L109.73-33.57Q110.65-34.85 111.31-35.42 111.97-35.99 112.5-35.99L112.5-35.99Q113.38-35.99 113.88-35.55 114.39-35.11 114.39-34.37L114.39-34.37Q114.39-34.01 114.04-33.22L114.04-33.22Q117.03-29.88 120.15-27.73L120.15-27.73Q126.04-23.73 130.17-22.41L130.17-22.41Q132.5-21.71 132.5-20.21L132.5-20.21ZM103.27-22.59L121.6-22.59Q115.97-26.41 112.1-30.63L112.1-30.63 112.02-30.63Q107.97-26.1 103.01-22.59L103.01-22.59 103.27-22.59ZM121.38-7.6Q121.77-8.57 122.28-9.05 122.78-9.54 123.44-9.54L123.44-9.54Q125.33-9.54 125.33-7.91L125.33-7.91Q125.33-7.29 124.1-4.53L124.1-4.53Q123.49-3.12 122.89-2.42 122.3-1.71 121.55-1.71L121.55-1.71Q119.71-1.71 119.71-3.43L119.71-3.43Q119.71-4.04 120.19-4.83L120.19-4.83 121.38-7.6ZM100.63-3.78L99.1-7.38 99.01-7.95Q98.92-8.66 99.4-9.05 99.89-9.45 100.77-9.45L100.77-9.45Q102.04-9.45 103.23-6.9L103.23-6.9Q104.41-4.39 104.41-3.69L104.41-3.69Q104.41-1.93 102.61-1.93L102.61-1.93Q101.25-1.93 100.63-3.78L100.63-3.78ZM175.47-29.58Q177.45-29.58 177.45-27.95L177.45-27.95Q177.45-26.41 175.47-26.41L175.47-26.41 171.87-26.41 171.87-22.06Q171.87-20.3 170.2-20.3L170.2-20.3Q168.49-20.3 168.49-22.06L168.49-22.06 168.49-26.41 162.25-26.41 162.25-22.06Q162.25-20.3 160.58-20.3L160.58-20.3Q158.86-20.3 158.86-22.06L158.86-22.06 158.86-26.41 155.7-26.41Q153.72-26.41 153.72-27.95L153.72-27.95Q153.72-29.58 155.7-29.58L155.7-29.58 158.86-29.58 158.86-33.66Q158.86-35.42 160.58-35.42L160.58-35.42Q162.25-35.42 162.25-33.66L162.25-33.66 162.25-29.58 168.49-29.58 168.49-33.66Q168.49-35.42 170.2-35.42L170.2-35.42Q171.87-35.42 171.87-33.66L171.87-33.66 171.87-29.58 175.47-29.58ZM138.56-26.37Q137.02-26.37 137.02-27.99L137.02-27.99Q137.02-29.31 138.96-29.84L138.96-29.84Q140.89-30.41 143.17-31.51L143.17-31.51Q144.62-32.26 145.81-32.96L145.81-32.96Q146.51-33.4 146.87-33.57L146.87-33.57Q148.49-34.5 148.84-34.58L148.84-34.58Q148.97-34.63 149.28-34.63L149.28-34.63Q149.9-34.63 150.29-34.23 150.69-33.84 150.78-33.09L150.78-33.09Q150.91-31.86 147.22-29.93L147.22-29.93Q140.27-26.37 138.56-26.37L138.56-26.37ZM153.63-26.5Q153.72-25.58 152.34-24.17 150.95-22.76 147.74-20.61L147.74-20.61Q152.8-14.19 152.8-6.86L152.8-6.86Q152.8-1.32 150.75 1.21 148.71 3.74 144.54 3.56L144.54 3.56Q142.47 3.47 142.47 1.67L142.47 1.67Q142.47 0.53 143.26 0.09L143.26 0.09Q143.66-0.09 145.5-0.26L145.5-0.26Q147.52-0.44 148.49-2.15L148.49-2.15Q149.11-3.25 149.35-4.33 149.59-5.41 149.59-6.77L149.59-6.77Q149.59-7.25 149.5-8.39L149.5-8.39 149.46-9.49Q147.66-7.25 144.14-4.57L144.14-4.57Q140.8-2.07 139.44-2.07L139.44-2.07Q137.9-2.07 137.9-3.69L137.9-3.69Q137.9-4.83 139.53-5.63L139.53-5.63Q145.37-8.48 148.75-12.57L148.75-12.57Q148.23-14.33 147.39-15.78L147.39-15.78Q146.65-14.33 143.83-12.44L143.83-12.44Q140.8-10.46 139.88-10.46L139.88-10.46Q138.43-10.46 138.43-12.17L138.43-12.17Q138.43-12.7 138.8-13.07 139.17-13.45 140.01-13.8L140.01-13.8Q143.57-15.29 146.07-17.97L146.07-17.97 145.24-19.07 142.21-17.49 140.8-16.92 140.54-16.79Q140.45-16.79 140.41-16.74L140.41-16.74Q140.27-16.66 139.92-16.57L139.92-16.57Q138.43-16.3 138.21-18.06L138.21-18.06Q138.12-18.68 138.63-19.18 139.13-19.69 140.32-20.21L140.32-20.21 141.77-20.83 139.44-24.26Q139.35-24.7 139.35-24.92L139.35-24.92Q139.35-25.49 139.7-25.82 140.05-26.15 140.76-26.15L140.76-26.15Q141.86-26.15 144.49-22.24L144.49-22.24 144.54-22.19 147.44-24.08 145.15-27.2Q145.11-27.38 145.11-27.73L145.11-27.73Q145.11-28.96 146.43-29.09L146.43-29.09Q147.35-29.14 149.72-26.06L149.72-26.06 150.29-26.67Q151.48-27.91 152.31-27.91L152.31-27.91Q153.41-27.91 153.63-26.5L153.63-26.5ZM172.31-18.94Q174.51-18.94 175.41-18.04 176.31-17.14 176.31-14.94L176.31-14.94 176.31-1.05Q176.31 1.14 175.41 2.04 174.51 2.94 172.31 2.94L172.31 2.94 158.47 2.94Q156.27 2.94 155.37 2.04 154.47 1.14 154.47-1.05L154.47-1.05 154.47-14.94Q154.47-17.14 155.37-18.04 156.27-18.94 158.47-18.94L158.47-18.94 172.31-18.94ZM163.87-9.89L163.87-15.82 159.48-15.82Q158.47-15.82 158.07-15.42 157.68-15.03 157.68-14.02L157.68-14.02 157.68-9.89 163.87-9.89ZM173.1-9.89L173.1-14.02Q173.1-15.03 172.71-15.42 172.31-15.82 171.3-15.82L171.3-15.82 167.12-15.82 167.12-9.89 173.1-9.89ZM163.87-0.18L163.87-6.9 157.68-6.9 157.68-1.98Q157.68-0.97 158.07-0.57 158.47-0.18 159.48-0.18L159.48-0.18 163.87-0.18ZM173.1-1.98L173.1-6.9 167.12-6.9 167.12-0.18 171.3-0.18Q172.31-0.18 172.71-0.57 173.1-0.97 173.1-1.98L173.1-1.98Z" transform="translate(-2.5, 35.9900016784668)"></path></g> <!----> <!----> <!----> <!----> <!----> <!----> <!----></g></g> <g data-gra="path-slogan" fill-rule="" class="tp-slogan iconsvg-slogansvg" fill="#333" transform="translate(5.000007629394531,46.30000305175781)"><rect x="0" height="1" y="3.9750003814697266" width="20.69499969482422"></rect> <rect height="1" y="3.9750003814697266" width="20.69499969482422" x="144.25499725341797"></rect> <g transform="translate(23.69499969482422,0)"><g transform="scale(1)"><path d="M4.41 0L0.94 0L0.94-8.58L4.45-8.58Q7.92-8.39 8.06-4.41L8.06-4.41Q7.88-0.09 4.41 0L4.41 0ZM4.27-7.64L2.11-7.64L2.11-0.98L4.36-0.98Q6.80-1.13 6.89-4.31L6.89-4.31Q6.84-7.55 4.27-7.64L4.27-7.64ZM16.31-4.27L16.31-4.27Q16.13-7.64 13.31-7.83L13.31-7.83Q10.45-7.69 10.31-4.27L10.31-4.27Q10.45-0.94 13.31-0.80L13.31-0.80Q16.13-0.98 16.31-4.27ZM17.48-4.27L17.48-4.27Q17.20 0 13.31 0.14L13.31 0.14Q9.38 0 9.09-4.27L9.09-4.27Q9.33-8.72 13.31-8.81L13.31-8.81Q17.20-8.67 17.48-4.27ZM20.25-8.58L24.56-1.64L24.56-8.58L25.69-8.58L25.69 0L24.38 0L20.02-6.94L19.97-6.94L19.97 0L18.84 0L18.84-8.58L20.25-8.58ZM33.89-3.61L31.27-3.61L31.27-4.59L35.02-4.59L35.02 0L34.27 0L33.98-1.08Q33 0.09 31.17 0.14L31.17 0.14Q29.44 0.14 28.50-0.75L28.50-0.75Q27.09-2.06 27.14-4.36L27.14-4.36Q27.47-8.63 31.22-8.81L31.22-8.81Q34.41-8.63 34.88-6L34.88-6L33.75-6Q33.28-7.78 31.17-7.83L31.17-7.83Q28.50-7.64 28.36-4.31L28.36-4.31Q28.36-0.75 31.22-0.75L31.22-0.75Q32.25-0.75 33-1.31L33-1.31Q33.94-2.06 33.89-3.61L33.89-3.61ZM43.22-3.61L40.59-3.61L40.59-4.59L44.34-4.59L44.34 0L43.59 0L43.31-1.08Q42.33 0.09 40.50 0.14L40.50 0.14Q38.77 0.14 37.83-0.75L37.83-0.75Q36.42-2.06 36.47-4.36L36.47-4.36Q36.80-8.63 40.55-8.81L40.55-8.81Q43.73-8.63 44.20-6L44.20-6L43.08-6Q42.61-7.78 40.50-7.83L40.50-7.83Q37.83-7.64 37.69-4.31L37.69-4.31Q37.69-0.75 40.55-0.75L40.55-0.75Q41.58-0.75 42.33-1.31L42.33-1.31Q43.27-2.06 43.22-3.61L43.22-3.61ZM51.80-3.19L51.80-8.58L52.97-8.58L52.97-3.05Q52.83 0.05 49.45 0.14L49.45 0.14Q46.31 0.05 46.17-2.86L46.17-2.86L46.17-8.58L47.34-8.58L47.34-3.19Q47.39-0.84 49.50-0.80L49.50-0.80Q51.80-0.84 51.80-3.19L51.80-3.19ZM60.42 0L59.58-2.48L56.11-2.48L55.22 0L54.05 0L57.28-8.58L58.59-8.58L61.69 0L60.42 0ZM57.84-7.31L56.48-3.52L59.16-3.52L57.89-7.31L57.84-7.31ZM64.13-8.58L68.44-1.64L68.44-8.58L69.56-8.58L69.56 0L68.25 0L63.89-6.94L63.84-6.94L63.84 0L62.72 0L62.72-8.58L64.13-8.58ZM73.97-1.92L73.97-2.77L75.05-2.77L75.05-2.16Q75.05-0.75 76.36-0.75L76.36-0.75Q77.72-0.75 77.72-2.25L77.72-2.25L77.72-8.58L78.89-8.58L78.89-2.30Q78.84 0.09 76.41 0.14L76.41 0.14Q74.11 0.09 73.97-1.92L73.97-1.92ZM80.86-8.58L82.03-8.58L82.03 0L80.86 0L80.86-8.58ZM85.41-8.58L89.72-1.64L89.72-8.58L90.84-8.58L90.84 0L89.53 0L85.17-6.94L85.13-6.94L85.13 0L84 0L84-8.58L85.41-8.58ZM100.88-8.58L100.88 0L99.75 0L99.75-5.06Q99.75-5.77 99.75-7.22L99.75-7.22L97.31 0L96.14 0L93.75-7.22L93.70-7.22Q93.70-6.70 93.75-5.67L93.75-5.67Q93.75-5.16 93.75-5.06L93.75-5.06L93.75 0L92.58 0L92.58-8.58L94.27-8.58L96.75-1.31L99.19-8.58L100.88-8.58ZM108.23 0L107.39-2.48L103.92-2.48L103.03 0L101.86 0L105.09-8.58L106.41-8.58L109.50 0L108.23 0ZM105.66-7.31L104.30-3.52L106.97-3.52L105.70-7.31L105.66-7.31ZM117.33-4.27L117.33-4.27Q117.14-7.64 114.33-7.83L114.33-7.83Q111.47-7.69 111.33-4.27L111.33-4.27Q111.47-0.94 114.33-0.80L114.33-0.80Q117.14-0.98 117.33-4.27ZM118.50-4.27L118.50-4.27Q118.22 0 114.33 0.14L114.33 0.14Q110.39 0 110.11-4.27L110.11-4.27Q110.34-8.72 114.33-8.81L114.33-8.81Q118.22-8.67 118.50-4.27Z" transform="translate(-0.9375, 8.8125)"></path></g></g></g></g></g><defs v-gra="od"></defs></svg>